<?xml version="1.0" standalone="no"?>
<!DOCTYPE svg PUBLIC "-//W3C//DTD SVG 20010904//EN"
 "http://www.w3.org/TR/2001/REC-SVG-20010904/DTD/svg10.dtd">
<svg version="1.0" xmlns="http://www.w3.org/2000/svg"
 width="400.000000pt" height="400.000000pt" viewBox="0 0 400.000000 400.000000"
 preserveAspectRatio="xMidYMid meet">
<metadata>
Created by potrace 1.14, written by Peter Selinger 2001-2017
</metadata>
<g transform="translate(0.000000,400.000000) scale(0.100000,-0.100000)"
fill="#000000" stroke="none">
<path d="M545 2649 c-4 -5 -10 -7 -15 -4 -5 3 -31 -3 -59 -14 -27 -10 -52 -16
-55 -13 -4 3 -6 1 -6 -4 0 -6 -18 -18 -40 -28 -45 -19 -174 -142 -185 -175 -3
-11 -11 -21 -16 -21 -5 0 -9 -6 -8 -12 1 -7 -7 -35 -19 -61 -12 -27 -22 -57
-22 -68 0 -10 -4 -19 -10 -19 -5 0 -10 -5 -10 -11 0 -5 6 -7 13 -3 9 6 9 5 0
-7 -14 -18 -14 -150 1 -168 8 -11 8 -13 -1 -8 -8 5 -7 -2 2 -20 8 -15 15 -34
15 -41 0 -7 4 -20 9 -30 5 -9 20 -39 32 -65 36 -73 152 -187 212 -209 15 -5
27 -14 27 -19 0 -4 7 -6 15 -3 8 4 15 1 15 -7 0 -7 3 -10 6 -6 3 3 24 -1 46
-9 22 -7 44 -11 49 -8 5 3 9 1 9 -3 0 -15 165 -6 226 13 32 9 62 17 67 16 4
-1 7 2 7 6 0 5 18 16 39 25 38 17 153 122 178 162 41 65 79 157 74 179 -1 4 2
13 7 20 11 13 8 198 -2 215 -4 6 -9 22 -12 35 -6 33 -70 156 -78 149 -3 -4 -6
1 -6 9 0 34 -171 168 -215 168 -10 0 -13 5 -9 12 5 8 0 9 -15 5 -14 -3 -24 0
-28 9 -3 8 -9 11 -14 8 -6 -3 -15 -2 -22 3 -16 13 -195 14 -202 2z"/>
<path d="M1945 2642 c-4 -4 -64 -15 -87 -16 -10 0 -18 -4 -18 -8 0 -4 -16 -10
-35 -14 -19 -3 -35 -10 -35 -16 0 -5 -4 -6 -10 -3 -5 3 -10 2 -10 -3 0 -5 -11
-14 -25 -20 -28 -13 -75 -52 -122 -102 -37 -40 -96 -144 -86 -154 3 -3 2 -6
-4 -6 -9 0 -17 -24 -27 -80 -1 -3 -4 -9 -7 -15 -5 -11 -3 -141 4 -190 3 -16
11 -47 20 -67 9 -21 13 -38 9 -38 -4 0 -2 -4 3 -8 6 -4 16 -18 23 -32 20 -40
35 -64 57 -91 28 -34 119 -109 133 -109 7 0 12 -3 12 -8 0 -4 15 -13 33 -20
17 -8 41 -18 52 -23 41 -18 83 -23 180 -22 121 2 145 5 145 15 0 4 8 8 18 8
18 0 128 55 148 74 6 6 28 24 48 41 20 16 36 35 36 41 0 7 6 14 14 17 16 6 89
151 95 187 1 14 8 28 15 32 8 5 7 8 -3 8 -11 0 -11 3 -2 14 15 18 13 155 -3
175 -9 12 -8 13 4 6 12 -7 13 -6 3 6 -7 9 -14 24 -16 35 -8 40 -40 114 -50
114 -5 0 -5 5 -2 10 3 6 2 10 -4 10 -5 0 -12 9 -16 20 -11 36 -147 160 -175
160 -5 0 -10 5 -10 10 0 6 -3 9 -7 8 -5 0 -24 6 -44 15 -34 15 -52 20 -119 33
-33 6 -130 11 -135 6z"/>
<path d="M3265 2632 c-62 -12 -133 -43 -200 -87 -83 -55 -184 -200 -200 -287
-4 -21 -10 -36 -14 -33 -4 2 -6 -44 -5 -103 3 -124 5 -142 16 -142 4 0 8 -10
8 -22 0 -13 7 -32 15 -42 8 -10 12 -23 9 -27 -3 -5 0 -9 6 -9 6 0 9 -4 6 -8
-11 -18 134 -181 162 -182 6 0 12 -4 12 -8 0 -4 24 -20 53 -34 50 -25 66 -31
119 -45 33 -9 200 -13 212 -5 6 3 17 7 26 7 30 3 120 37 120 46 0 5 4 8 9 6 8
-2 89 52 113 77 27 28 93 108 94 114 0 4 13 33 27 65 15 32 27 69 27 83 0 14
4 23 8 20 5 -3 9 38 11 90 1 65 -1 94 -8 89 -6 -3 -9 0 -6 7 3 8 -1 32 -9 55
-8 23 -12 44 -9 47 4 3 1 6 -5 6 -7 0 -11 3 -10 8 2 8 -23 64 -32 72 -3 3 -17
21 -30 40 -28 39 -73 85 -116 116 -44 32 -111 64 -118 57 -3 -4 -6 -2 -6 4 0
5 -6 10 -12 11 -7 1 -35 6 -63 12 -47 10 -165 11 -210 2z"/>
</g>
</svg>
